<svg width="150" height="46" viewBox="0 0 150 46" fill="none" xmlns="http://www.w3.org/2000/svg">
<path d="M9.20841 12.5833H23.7917C24.068 12.5833 24.333 12.6931 24.5283 12.8884C24.7237 13.0838 24.8334 13.3487 24.8334 13.625V32.375C24.8334 32.6513 24.7237 32.9162 24.5283 33.1116C24.333 33.3069 24.068 33.4167 23.7917 33.4167H9.20841C8.93215 33.4167 8.6672 33.3069 8.47185 33.1116C8.27649 32.9162 8.16675 32.6513 8.16675 32.375V13.625C8.16675 13.3487 8.27649 13.0838 8.47185 12.8884C8.6672 12.6931 8.93215 12.5833 9.20841 12.5833ZM13.3751 21.9583V18.8333L8.16675 23L13.3751 27.1667V24.0417H19.6251V21.9583H13.3751Z" fill="#4461F2"/>
<path d="M73.18 27.78H77.78V30H70.38V16.04H73.18V27.78ZM84.4797 30.18C83.413 30.18 82.453 29.9467 81.5997 29.48C80.7464 29 80.073 28.3267 79.5797 27.46C79.0997 26.5933 78.8597 25.5933 78.8597 24.46C78.8597 23.3267 79.1064 22.3267 79.5997 21.46C80.1064 20.5933 80.793 19.9267 81.6597 19.46C82.5264 18.98 83.493 18.74 84.5597 18.74C85.6264 18.74 86.593 18.98 87.4597 19.46C88.3264 19.9267 89.0064 20.5933 89.4997 21.46C90.0064 22.3267 90.2597 23.3267 90.2597 24.46C90.2597 25.5933 89.9997 26.5933 89.4797 27.46C88.973 28.3267 88.2797 29 87.3997 29.48C86.533 29.9467 85.5597 30.18 84.4797 30.18ZM84.4797 27.74C84.9864 27.74 85.4597 27.62 85.8997 27.38C86.353 27.1267 86.713 26.7533 86.9797 26.26C87.2464 25.7667 87.3797 25.1667 87.3797 24.46C87.3797 23.4067 87.0997 22.6 86.5397 22.04C85.993 21.4667 85.3197 21.18 84.5197 21.18C83.7197 21.18 83.0464 21.4667 82.4997 22.04C81.9664 22.6 81.6997 23.4067 81.6997 24.46C81.6997 25.5133 81.9597 26.3267 82.4797 26.9C83.013 27.46 83.6797 27.74 84.4797 27.74ZM96.6536 18.74C97.4803 18.74 98.2069 18.9067 98.8336 19.24C99.4603 19.56 99.9536 19.98 100.314 20.5V18.92H103.134V30.08C103.134 31.1067 102.927 32.02 102.514 32.82C102.1 33.6333 101.48 34.2733 100.654 34.74C99.8269 35.22 98.8269 35.46 97.6536 35.46C96.0803 35.46 94.7869 35.0933 93.7736 34.36C92.7736 33.6267 92.2069 32.6267 92.0736 31.36H94.8536C95.0003 31.8667 95.3136 32.2667 95.7936 32.56C96.2869 32.8667 96.8803 33.02 97.5736 33.02C98.3869 33.02 99.0469 32.7733 99.5536 32.28C100.06 31.8 100.314 31.0667 100.314 30.08V28.36C99.9536 28.88 99.4536 29.3133 98.8136 29.66C98.1869 30.0067 97.4669 30.18 96.6536 30.18C95.7203 30.18 94.8669 29.94 94.0936 29.46C93.3203 28.98 92.7069 28.3067 92.2536 27.44C91.8136 26.56 91.5936 25.5533 91.5936 24.42C91.5936 23.3 91.8136 22.3067 92.2536 21.44C92.7069 20.5733 93.3136 19.9067 94.0736 19.44C94.8469 18.9733 95.7069 18.74 96.6536 18.74ZM100.314 24.46C100.314 23.78 100.18 23.2 99.9136 22.72C99.6469 22.2267 99.2869 21.8533 98.8336 21.6C98.3803 21.3333 97.8936 21.2 97.3736 21.2C96.8536 21.2 96.3736 21.3267 95.9336 21.58C95.4936 21.8333 95.1336 22.2067 94.8536 22.7C94.5869 23.18 94.4536 23.7533 94.4536 24.42C94.4536 25.0867 94.5869 25.6733 94.8536 26.18C95.1336 26.6733 95.4936 27.0533 95.9336 27.32C96.3869 27.5867 96.8669 27.72 97.3736 27.72C97.8936 27.72 98.3803 27.5933 98.8336 27.34C99.2869 27.0733 99.6469 26.7 99.9136 26.22C100.18 25.7267 100.314 25.14 100.314 24.46ZM117.114 30.14C115.807 30.14 114.607 29.8333 113.514 29.22C112.421 28.6067 111.554 27.76 110.914 26.68C110.274 25.5867 109.954 24.3533 109.954 22.98C109.954 21.62 110.274 20.4 110.914 19.32C111.554 18.2267 112.421 17.3733 113.514 16.76C114.607 16.1467 115.807 15.84 117.114 15.84C118.434 15.84 119.634 16.1467 120.714 16.76C121.807 17.3733 122.667 18.2267 123.294 19.32C123.934 20.4 124.254 21.62 124.254 22.98C124.254 24.3533 123.934 25.5867 123.294 26.68C122.667 27.76 121.807 28.6067 120.714 29.22C119.621 29.8333 118.421 30.14 117.114 30.14ZM117.114 27.64C117.954 27.64 118.694 27.4533 119.334 27.08C119.974 26.6933 120.474 26.1467 120.834 25.44C121.194 24.7333 121.374 23.9133 121.374 22.98C121.374 22.0467 121.194 21.2333 120.834 20.54C120.474 19.8333 119.974 19.2933 119.334 18.92C118.694 18.5467 117.954 18.36 117.114 18.36C116.274 18.36 115.527 18.5467 114.874 18.92C114.234 19.2933 113.734 19.8333 113.374 20.54C113.014 21.2333 112.834 22.0467 112.834 22.98C112.834 23.9133 113.014 24.7333 113.374 25.44C113.734 26.1467 114.234 26.6933 114.874 27.08C115.527 27.4533 116.274 27.64 117.114 27.64ZM136.797 18.92V30H133.977V28.6C133.617 29.08 133.144 29.46 132.557 29.74C131.984 30.0067 131.357 30.14 130.677 30.14C129.81 30.14 129.044 29.96 128.377 29.6C127.71 29.2267 127.184 28.6867 126.797 27.98C126.424 27.26 126.237 26.4067 126.237 25.42V18.92H129.037V25.02C129.037 25.9 129.257 26.58 129.697 27.06C130.137 27.5267 130.737 27.76 131.497 27.76C132.27 27.76 132.877 27.5267 133.317 27.06C133.757 26.58 133.977 25.9 133.977 25.02V18.92H136.797ZM142.82 21.22V26.58C142.82 26.9533 142.906 27.2267 143.08 27.4C143.266 27.56 143.573 27.64 144 27.64H145.3V30H143.54C141.18 30 140 28.8533 140 26.56V21.22H138.68V18.92H140V16.18H142.82V18.92H145.3V21.22H142.82Z" fill="#696F79"/>
</svg>
